<svg id="Layer_1" data-name="Layer 1" xmlns="http://www.w3.org/2000/svg" viewBox="0 0 512 512"><defs><style>.cls-1{fill:#fff;}</style></defs><title>FFW</title><path class="cls-1" d="M256,467.65a7.48,7.48,0,0,1-3.8-1c-7.26-4.3-177.86-106.49-177.86-223.07,0-51.29,16-143.39,45.95-182.93a7.47,7.47,0,0,1,5.58-2.95A7.37,7.37,0,0,1,131.71,60a67.67,67.67,0,0,0,49.37,21.52c37.48,0,69.07-34.39,69.38-34.74A7.48,7.48,0,0,1,256,44.35h0a7.47,7.47,0,0,1,5.54,2.47c0.31,0.34,31.91,34.74,69.38,34.74A67.67,67.67,0,0,0,380.3,60a7.47,7.47,0,0,1,11.42.57c30,39.54,45.94,131.65,45.94,182.93,0,116.58-170.6,218.78-177.86,223.07A7.48,7.48,0,0,1,256,467.65Zm-128.55-391c-22.73,37.09-38.17,115-38.17,166.92,0,98.94,141.52,192.08,166.72,207.87,25.2-15.79,166.72-108.93,166.72-207.87,0-51.95-15.45-129.83-38.17-166.92a82.66,82.66,0,0,1-53.62,19.87c-34.48,0-63.25-23.16-74.93-34.11-11.68,11-40.45,34.11-74.93,34.11A82.68,82.68,0,0,1,127.45,76.62Z"/><path class="cls-1" d="M380.88,194.15H86.47a7.47,7.47,0,0,1,0-14.94H380.88A7.47,7.47,0,1,1,380.88,194.15Z"/></svg>