<svg id="Layer_1" data-name="Layer 1" xmlns="http://www.w3.org/2000/svg" viewBox="0 0 512 512"><defs><style>.cls-1{fill:#923057;}</style></defs><title>Blog</title><path class="cls-1" d="M256,444.75a7.49,7.49,0,0,1-3.33-.78c-2.15-1.07-53.38-26.79-105.44-71.51C77.55,312.59,40.72,247.3,40.72,183.65c0-56.27,25.61-116.39,97.49-116.39a148.35,148.35,0,0,1,40.73,5.49,7.47,7.47,0,1,1-4.1,14.37,133.4,133.4,0,0,0-36.62-4.92c-76.59,0-82.54,77.65-82.54,101.45C55.66,317.3,229.59,414.83,256,428.85c26.41-14,200.34-111.66,200.34-245.21,0-23.8-6-101.45-82.54-101.45-82.35,0-110.59,67.68-110.87,68.37a7.47,7.47,0,0,1-6.93,4.68h0a7.47,7.47,0,0,1-6.93-4.68c-0.08-.2-9-21.76-31.09-40.43a7.47,7.47,0,0,1,9.66-11.4,138.77,138.77,0,0,1,28.44,33.19c13.75-22.14,49.09-64.66,117.72-64.66,71.87,0,97.48,60.13,97.48,116.39,0,63.66-36.83,128.94-106.5,188.8C312.71,417.18,261.48,442.89,259.33,444A7.49,7.49,0,0,1,256,444.75Z"/></svg>