<svg id="Layer_1" data-name="Layer 1" xmlns="http://www.w3.org/2000/svg" viewBox="0 0 512 512"><defs><style>.cls-1{fill:#a4606d;}</style></defs><title>Blog</title><path class="cls-1" d="M370.24,173.81a7.76,7.76,0,0,0-6.53,14.07c42.17,19.56,62.67,53.13,62.67,102.63C426.38,359,384,444,333.93,476.19c-25.17,16.15-50.3,18.68-74.7,7.5a7.74,7.74,0,0,0-6.76.15c-19.79,10.12-41.95,7.83-65.89-6.82-53.79-32.9-101-120.05-101-186.5,0-80.73,57.32-121.67,170.38-121.67a376,376,0,0,1,46.24,2.67,7.76,7.76,0,1,0,1.92-15.4,383.46,383.46,0,0,0-39.39-2.54C270,112.12,315.55,82.26,316,81.95a7.76,7.76,0,0,0-8.3-13.11c-2.31,1.46-54.07,34.85-59,84.68-116.82,1.9-178.63,49.1-178.63,137,0,71.09,50.65,164.42,108.38,199.74,27.16,16.61,53.93,19.69,77.67,9A86.44,86.44,0,0,0,289.35,506c17.71,0,35.59-5.61,53-16.75C397.22,454,441.9,364.85,441.9,290.51,441.9,235.12,417.79,195.86,370.24,173.81Z"/><path class="cls-1" d="M220.63,131.21a7.75,7.75,0,0,0,8.55-7.5c0.06-2.11,1.06-52-32.45-86.5C176.6,16.5,148.54,6,113.35,6q-2.45,0-5,.07a7.75,7.75,0,0,0-7.29,5.77c-7.72,29.11-5,53.41,7.94,72.23C126.86,109.86,163.36,125.28,220.63,131.21ZM114.71,21.52c30.15,0.26,54,9.14,70.81,26.41,21.34,21.88,26.52,52.2,27.77,66.82-46.73-6-77.48-19.23-91.48-39.5C112.18,61.3,109.84,43.68,114.71,21.52Z"/></svg>