<svg id="Layer_1" data-name="Layer 1" xmlns="http://www.w3.org/2000/svg" viewBox="0 0 512 512"><defs><style>.cls-1{fill:#c5607f;}</style></defs><title>Blog</title><path class="cls-1" d="M245.3,365.53a7.47,7.47,0,0,1-5.39-12.64c22.9-23.87,51.41-26.37,81.6-29,34-3,69.23-6.08,102.92-39.76,54.25-54.25,54.25-142.52,0-196.77s-142.53-54.25-196.78,0c-33.61,33.61-36.08,68.58-38.46,102.39C187,220.25,185,249.08,161,273.66a7.47,7.47,0,0,1-10.7-10.43c20.15-20.67,21.91-45.64,23.95-74.56,2.46-34.85,5.24-74.35,42.8-111.9,60.08-60.08,157.83-60.08,217.91,0s60.08,157.82,0,217.9c-37.53,37.53-77.19,41-112.18,44.08-28.49,2.5-53.1,4.66-72.12,24.48A7.44,7.44,0,0,1,245.3,365.53Z"/><path class="cls-1" d="M134.43,475.74a41.38,41.38,0,0,1-29.36-12.14L48.64,407.16a41.56,41.56,0,0,1,0-58.71L124.06,273A41.61,41.61,0,0,1,156.18,261a7.47,7.47,0,0,1-1,14.91,26.68,26.68,0,0,0-20.57,7.72L59.2,359a26.61,26.61,0,0,0,0,37.58L115.63,453a26.61,26.61,0,0,0,37.58,0l75.42-75.42c7.37-7.36,10.28-14.43,8.9-21.56a51.93,51.93,0,0,0-7.65-2.28c-14.49-3.64-38.75-9.74-62.2-43a7.47,7.47,0,1,1,12.21-8.6c20.25,28.76,40.34,33.81,53.63,37.15,8.42,2.12,16.37,4.12,18.37,12.52,3,12.69-1.26,24.93-12.7,36.37L163.78,463.6A41.38,41.38,0,0,1,134.43,475.74Z"/><path class="cls-1" d="M82.13,480.29a50.18,50.18,0,0,1-35.49-85.69A7.47,7.47,0,1,1,57.2,405.16,35.27,35.27,0,1,0,107.07,455a7.47,7.47,0,1,1,10.56,10.56A50.06,50.06,0,0,1,82.13,480.29Z"/><path class="cls-1" d="M253.68,122.4a7.47,7.47,0,0,1-5.28-12.75,109.16,109.16,0,0,1,154.19,0A7.47,7.47,0,1,1,392,120.21a94.09,94.09,0,0,0-133.07,0A7.45,7.45,0,0,1,253.68,122.4Z"/></svg>